<?xml version="1.0" standalone="no"?><svg xmlns="http://www.w3.org/2000/svg" viewBox="0 0 1440 320"><path fill="#0099ff" fill-opacity="1" d="M0,32L40,74.7C80,117,160,203,240,240C320,277,400,267,480,240C560,213,640,171,720,144C800,117,880,107,960,138.7C1040,171,1120,245,1200,256C1280,267,1360,213,1400,186.7L1440,160L1440,320L1400,320C1360,320,1280,320,1200,320C1120,320,1040,320,960,320C880,320,800,320,720,320C640,320,560,320,480,320C400,320,320,320,240,320C160,320,80,320,40,320L0,320Z"></path></svg>